<svg xmlns="http://www.w3.org/2000/svg" viewBox="0 0 128 120" width="128" height="120" role="img" aria-label="Relocation Centers icon">
  <defs>
    <linearGradient id="rcGold" x1="0" y1="0" x2="1" y2="1">
      <stop offset="0" stop-color="#8a6d1f"/>
      <stop offset="0.45" stop-color="#d4af37"/>
      <stop offset="0.75" stop-color="#f4d78a"/>
      <stop offset="1" stop-color="#c9962b"/>
    </linearGradient>
  </defs>
  <g fill="none" stroke="url(#rcGold)" stroke-width="4.5" stroke-linecap="round" stroke-linejoin="round">
    <rect x="28" y="18" width="56" height="74" rx="8"/>
    <line x1="38" y1="23" x2="38" y2="87" stroke-width="3"/>
    <rect x="38" y="32" width="22" height="24" rx="3" stroke-width="3"/>
    <line x1="64" y1="40" x2="77" y2="40" stroke-width="3"/>
    <line x1="64" y1="48" x2="75" y2="48" stroke-width="3"/>
    <line x1="38" y1="66" x2="77" y2="66" stroke-width="3"/>
    <line x1="38" y1="74" x2="77" y2="74" stroke-width="3"/>
    <line x1="38" y1="82" x2="70" y2="82" stroke-width="3"/>
  </g>
  <circle cx="49" cy="41" r="4.5" fill="url(#rcGold)"/>
  <path d="M42.5 54 C42.5 47 55.5 47 55.5 54 Z" fill="url(#rcGold)"/>
  <circle cx="95" cy="86" r="19" fill="#0d0d0d" stroke="url(#rcGold)" stroke-width="4.5"/>
  <path d="M86 86 l6 7 l13 -16" fill="none" stroke="url(#rcGold)" stroke-width="5" stroke-linecap="round" stroke-linejoin="round"/>
</svg>
